<svg xmlns="http://www.w3.org/2000/svg" viewBox="0 0 190.7 316.7"><path d="M190.7,316.7H0V0H190.7ZM.3,316.4h190V.3H.3Z"/><path d="M159.7,74.4H44.4V8.4H159.7ZM44.8,74.1H159.4V8.7H44.8Z"/><path d="M9.2,39.2a6,6,0,0,1-6-6,5.9,5.9,0,0,1,6-5.9,5.9,5.9,0,0,1,6,5.9A6,6,0,0,1,9.2,39.2Zm0-11.6a5.6,5.6,0,0,0-5.6,5.6,5.7,5.7,0,0,0,5.6,5.7,5.7,5.7,0,0,0,5.6-5.7A5.6,5.6,0,0,0,9.2,27.6Z"/><path d="M181,39.2a6,6,0,0,1-6-6,5.9,5.9,0,0,1,6-5.9,5.8,5.8,0,0,1,5.9,5.9A5.9,5.9,0,0,1,181,39.2Zm0-11.6a5.7,5.7,0,0,0-5.7,5.6,5.8,5.8,0,0,0,5.7,5.7,5.7,5.7,0,0,0,5.6-5.7A5.6,5.6,0,0,0,181,27.6Z"/><path d="M44.3,273.5a6,6,0,0,1,0-12,6,6,0,0,1,0,12Zm0-11.6a5.6,5.6,0,1,0,0,11.2,5.6,5.6,0,0,0,0-11.2Z"/><path d="M146.3,273.5a6,6,0,0,1,0-12,6,6,0,0,1,0,12Zm0-11.6a5.6,5.6,0,0,0,0,11.2,5.6,5.6,0,1,0,0-11.2Z"/><path d="M68.3,212.4H42.7V198.5H68.3ZM43,212.1H68V198.8H43Z"/><path d="M165.4,101.3H105.1V85.9h60.3Zm-59.9-.4h59.6V86.2H105.5Z"/><path d="M52.4,300.5H39.2v-10H52.4Zm-12.9-.4H52.1v-9.3H39.5Z"/><path d="M151.3,300.5H138v-10h13.3Zm-12.9-.4h12.5v-9.3H138.4Z"/></svg>